<svg xmlns="http://www.w3.org/2000/svg" viewBox="0 0 1600 900" role="img" aria-labelledby="title desc">
  <title id="title">Здесь и там</title>
  <desc id="desc">Здесь рядом с меткой, там далеко по стрелке.</desc>
  <rect width="1600" height="900" fill="#ffffff"/>
  <text x="185" y="390" fill="#111111" font-family="Comic Sans MS, Segoe Print, Arial, sans-serif" font-size="142" font-weight="700">Здесь</text>
  <text x="1095" y="390" fill="#111111" font-family="Comic Sans MS, Segoe Print, Arial, sans-serif" font-size="142" font-weight="700">Там</text>
  <g transform="translate(342 465)" fill="#111111">
    <path d="M58 0C26 0 0 26 0 58c0 48 58 112 58 112s58-64 58-112C116 26 90 0 58 0Zm0 82a24 24 0 1 1 0-48 24 24 0 0 1 0 48Z"/>
    <path d="M58 183c-36 0-65 12-65 26s29 26 65 26 65-12 65-26-29-26-65-26Zm0 40c-26 0-48-7-48-15 0-8 22-15 48-15s48 7 48 15c0 8-22 15-48 15Z"/>
  </g>
  <g fill="none" stroke="#111111" stroke-linecap="round" stroke-linejoin="round" stroke-width="18">
    <path d="M1404 496h149"/>
    <path d="M1497 440l57 56-57 56"/>
  </g>
</svg>
